<svg width="69.000000" height="69.000000" viewBox="0 0 69 69" fill="none" xmlns="http://www.w3.org/2000/svg" xmlns:xlink="http://www.w3.org/1999/xlink">
	<desc>
			Created with Pixso.
	</desc>
	<defs>
		<clipPath id="clip60_1741">
			<rect id="24-hours" rx="-0.500000" width="68.000000" height="68.000000" transform="translate(0.500000 0.500000)" fill="white" fill-opacity="0"/>
		</clipPath>
	</defs>
	<rect id="24-hours" rx="-0.500000" width="68.000000" height="68.000000" transform="translate(0.500000 0.500000)" fill="#FFFFFF" fill-opacity="0"/>
	<g clip-path="url(#clip60_1741)">
		<path id="Vector" d="M60.08 11.99L59.7 5.57C59.63 4.51 58.75 3.69 57.68 3.76C56.62 3.83 55.82 4.72 55.87 5.78L55.98 7.67C50.44 3.53 43.71 1.27 36.65 1.27C28.01 1.27 19.89 4.64 13.79 10.74C13.04 11.49 13.04 12.7 13.79 13.46C14.82 14.49 16.12 13.84 16.51 13.46C21.88 8.08 29.04 5.1 36.66 5.1C42.72 5.1 48.48 6.98 53.29 10.46L51.63 10.56C50.57 10.63 49.77 11.53 49.83 12.59C49.88 13.61 50.74 14.39 51.74 14.39C51.78 14.39 58.28 14.01 58.28 14.01C59.34 13.95 60.14 13.05 60.08 11.99Z" fill="#0D1C41" fill-opacity="1.000000" fill-rule="nonzero"/>
		<path id="Vector" d="M29.27 61.14C15.61 57.48 6.94 44.43 8.3 30.79L9.21 32.16C9.58 32.72 10.75 33.39 11.86 32.71C12.76 32.15 12.99 30.94 12.4 30.06L8.87 24.68C8.59 24.26 8.15 23.96 7.66 23.85C7.16 23.75 6.64 23.85 6.22 24.12L0.86 27.65C-0.03 28.24 -0.27 29.42 0.31 30.3C0.9 31.18 2.08 31.43 2.96 30.85L4.55 29.8C2.69 45.5 12.59 60.64 28.28 64.83C28.45 64.87 30.14 65.08 30.63 63.47C30.95 62.47 30.31 61.41 29.27 61.14Z" fill="#0D1C41" fill-opacity="1.000000" fill-rule="nonzero"/>
		<path id="Vector" d="M67.89 25.24C67.62 24.22 66.56 23.6 65.54 23.88C64.52 24.15 63.91 25.21 64.19 26.23C67.84 39.89 60.88 53.94 48.39 59.58L49.12 58.09C49.6 57.14 49.22 56 48.26 55.53C47.31 55.05 46.16 55.43 45.7 56.38L42.82 62.13C42.34 63.08 42.72 64.22 43.67 64.7L49.42 67.58C49.69 67.71 51.23 68.05 51.99 66.72C52.52 65.8 52.08 64.63 51.13 64.15L49.41 63.28C63.94 57.06 72.09 40.94 67.89 25.24Z" fill="#0D1C41" fill-opacity="1.000000" fill-rule="nonzero"/>
		<path id="Vector" d="M27.81 40.49L31.26 36.89C32.6 35.49 34.78 33.51 34.78 30.61C34.78 28.81 33.39 24.77 28.57 24.77C24.9 24.77 22.45 27.6 21.56 28.98L24.97 31.01C26.04 29.3 27.18 28.44 28.38 28.44C30.7 28.44 30.62 30.04 30.62 30.68C30.62 32.37 28.61 34.25 27.48 35.41L21.88 41.14L21.88 44.31L35.35 44.31L35.35 40.49L27.81 40.49Z" fill="#0D1C41" fill-opacity="1.000000" fill-rule="nonzero"/>
		<path id="Vector" d="M49.58 36.05L49.58 32.72L45.49 32.72L45.49 36.05L42.79 36.05L49.26 25.21L44.62 25.21L37.82 36.48L37.82 39.73L45.49 39.73L45.49 44.29L49.58 44.29L49.58 39.73L51.74 39.73L51.74 36.05L49.58 36.05Z" fill="#0D1C41" fill-opacity="1.000000" fill-rule="nonzero"/>
		<path id="Vector" d="M56.39 22.75C55.74 22.75 55.15 23.01 54.64 23.54L54.64 20.49L52.91 20.49L52.91 29.02L54.64 29.02L54.64 25.68C54.64 25.19 54.76 24.22 55.93 24.22C56.62 24.22 56.97 24.69 56.97 25.64L56.97 29.02L58.7 29.02L58.7 25.28C58.7 24.05 57.94 22.75 56.39 22.75Z" fill="#0D1C41" fill-opacity="1.000000" fill-rule="nonzero"/>
	</g>
</svg>
