<svg width="94.452637" height="69.387939" viewBox="0 0 94.4526 69.3879" fill="none" xmlns="http://www.w3.org/2000/svg" xmlns:xlink="http://www.w3.org/1999/xlink">
	<desc>
			Created with Pixso.
	</desc>
	<defs/>
	<path id="Vector 1" d="M5.79 6.45C-9.84 17.17 21.9 45.11 28.04 47.34C34.18 49.58 37.46 43.53 30.9 37.15C22.46 28.93 11.93 61.71 23.65 67.29C33.02 71.75 47.57 47.9 48.21 43.29C48.84 38.67 45.42 33.8 45.42 33.8C38.72 20.22 21.42 -4.27 5.79 6.45Z" stroke="#000000" stroke-opacity="1.000000" stroke-width="3.000000"/>
	<path id="Vector 2" d="M88.66 4.22C104.28 14.93 72.54 42.88 66.41 45.11C60.27 47.34 56.98 41.29 63.54 34.91C71.99 26.69 82.52 59.47 70.79 65.05C61.42 69.52 46.87 45.67 46.24 41.05C45.6 36.44 49.03 31.57 49.03 31.57C55.73 17.98 73.03 -6.5 88.66 4.22Z" stroke="#000000" stroke-opacity="1.000000" stroke-width="3.000000"/>
</svg>
