<svg width="68.000000" height="68.000000" viewBox="0 0 68 68" fill="none" xmlns="http://www.w3.org/2000/svg" xmlns:xlink="http://www.w3.org/1999/xlink">
	<desc>
			Created with Pixso.
	</desc>
	<defs>
		<clipPath id="clip60_1774">
			<rect id="calendar 1" rx="-0.500000" width="67.000000" height="67.000000" transform="translate(0.500000 0.500000)" fill="white" fill-opacity="0"/>
		</clipPath>
	</defs>
	<rect id="calendar 1" rx="-0.500000" width="67.000000" height="67.000000" transform="translate(0.500000 0.500000)" fill="#FFFFFF" fill-opacity="0"/>
	<g clip-path="url(#clip60_1774)">
		<path id="Vector" d="M53.92 27.89C53.92 29.35 52.73 30.54 51.26 30.54C49.79 30.54 48.6 29.35 48.6 27.89C48.6 26.42 49.79 25.23 51.26 25.23C52.73 25.23 53.92 26.42 53.92 27.89Z" fill="#000000" fill-opacity="1.000000" fill-rule="evenodd"/>
		<path id="Vector" d="M42.36 27.89C42.36 29.35 41.17 30.54 39.71 30.54C38.24 30.54 37.05 29.35 37.05 27.89C37.05 26.42 38.24 25.23 39.71 25.23C41.17 25.23 42.36 26.42 42.36 27.89Z" fill="#000000" fill-opacity="1.000000" fill-rule="evenodd"/>
		<path id="Vector" d="M19.25 51C19.25 52.46 18.06 53.65 16.6 53.65C15.13 53.65 13.94 52.46 13.94 51C13.94 49.53 15.13 48.34 16.6 48.34C18.06 48.34 19.25 49.53 19.25 51Z" fill="#000000" fill-opacity="1.000000" fill-rule="evenodd"/>
		<path id="Vector" d="M19.25 27.89C19.25 29.35 18.06 30.54 16.6 30.54C15.13 30.54 13.94 29.35 13.94 27.89C13.94 26.42 15.13 25.23 16.6 25.23C18.06 25.23 19.25 26.42 19.25 27.89Z" fill="#000000" fill-opacity="1.000000" fill-rule="evenodd"/>
		<path id="Vector" d="M19.25 39.44C19.25 40.91 18.06 42.1 16.6 42.1C15.13 42.1 13.94 40.91 13.94 39.44C13.94 37.97 15.13 36.78 16.6 36.78C18.06 36.78 19.25 37.97 19.25 39.44Z" fill="#000000" fill-opacity="1.000000" fill-rule="evenodd"/>
		<path id="Vector" d="M30.81 39.44C30.81 40.91 29.62 42.1 28.15 42.1C26.68 42.1 25.5 40.91 25.5 39.44C25.5 37.97 26.68 36.78 28.15 36.78C29.62 36.78 30.81 37.97 30.81 39.44Z" fill="#000000" fill-opacity="1.000000" fill-rule="evenodd"/>
		<path id="Vector" d="M30.81 27.89C30.81 29.35 29.62 30.54 28.15 30.54C26.68 30.54 25.5 29.35 25.5 27.89C25.5 26.42 26.68 25.23 28.15 25.23C29.62 25.23 30.81 26.42 30.81 27.89Z" fill="#000000" fill-opacity="1.000000" fill-rule="evenodd"/>
		<path id="Vector" d="M30.81 51C30.81 52.46 29.62 53.65 28.15 53.65C26.68 53.65 25.5 52.46 25.5 51C25.5 49.53 26.68 48.34 28.15 48.34C29.62 48.34 30.81 49.53 30.81 51Z" fill="#000000" fill-opacity="1.000000" fill-rule="evenodd"/>
		<rect id="Rectangle 37" x="39.148193" y="38.518555" rx="6.000000" width="13.000000" height="12.999996" stroke="#000000" stroke-opacity="1.000000" stroke-width="4.000000"/>
		<rect id="Rectangle 38" x="2.000000" y="7.037109" rx="16.000000" width="64.000000" height="58.962963" stroke="#000000" stroke-opacity="1.000000" stroke-width="4.000000"/>
		<line id="Line 21" x1="15.851807" y1="0.000000" x2="15.851807" y2="13.851807" stroke="#000000" stroke-opacity="1.000000" stroke-width="4.000000"/>
		<line id="Line 22" x1="34.740723" y1="0.000000" x2="34.740723" y2="13.851807" stroke="#000000" stroke-opacity="1.000000" stroke-width="4.000000"/>
		<line id="Line 23" x1="52.370361" y1="0.000000" x2="52.370361" y2="13.851807" stroke="#000000" stroke-opacity="1.000000" stroke-width="4.000000"/>
	</g>
</svg>
