<svg width="17.000000" height="17.000000" viewBox="0 0 17 17" fill="none" xmlns="http://www.w3.org/2000/svg" xmlns:xlink="http://www.w3.org/1999/xlink">
	<desc>
			Created with Pixso.
	</desc>
	<defs/>
	<path id="Vector" d="M17 2.81C17 1.32 15.67 0 14.18 0L2.81 0C1.32 0 0 1.32 0 2.81L0 14.18C0 15.67 1.32 17 2.81 17L8.54 17L8.54 10.56L6.43 10.56L6.43 7.75L8.54 7.75L8.54 6.6C8.54 4.66 9.95 2.99 11.71 2.99L14 2.99L14 5.81L11.71 5.81C11.45 5.81 11.18 6.07 11.18 6.6L11.18 7.75L14 7.75L14 10.56L11.18 10.56L11.18 17L14.18 17C15.67 17 17 15.67 17 14.18L17 2.81Z" fill="#A89060" fill-opacity="1.000000" fill-rule="nonzero"/>
</svg>
