<svg width="17.000000" height="17.000000" viewBox="0 0 17 17" fill="none" xmlns="http://www.w3.org/2000/svg" xmlns:xlink="http://www.w3.org/1999/xlink">
	<desc>
			Created with Pixso.
	</desc>
	<defs/>
	<path id="Vector" d="M14.58 0L2.41 0C1.04 0 0 1.04 0 2.41L0 14.58C0 15.95 1.04 17 2.41 17L14.58 17C15.95 17 17 15.95 17 14.58L17 2.41C17 1.04 15.95 0 14.58 0ZM8.5 13.6C11.31 13.6 13.6 11.37 13.6 8.69C13.6 8.23 13.53 7.71 13.4 7.32L14.84 7.32L14.84 14.25C14.84 14.58 14.58 14.9 14.18 14.9L2.81 14.9C2.48 14.9 2.15 14.64 2.15 14.25L2.15 7.25L3.66 7.25C3.53 7.71 3.46 8.17 3.46 8.63C3.39 11.37 5.68 13.6 8.5 13.6ZM8.5 11.63C6.66 11.63 5.23 10.2 5.23 8.43C5.23 6.66 6.66 5.23 8.5 5.23C10.33 5.23 11.76 6.66 11.76 8.43C11.76 10.26 10.33 11.63 8.5 11.63ZM14.77 4.64C14.77 5.03 14.45 5.36 14.05 5.36L12.22 5.36C11.83 5.36 11.5 5.03 11.5 4.64L11.5 2.87C11.5 2.48 11.83 2.15 12.22 2.15L14.05 2.15C14.45 2.15 14.77 2.48 14.77 2.87L14.77 4.64Z" fill="#A89060" fill-opacity="1.000000" fill-rule="nonzero"/>
</svg>
