<svg width="73.000000" height="73.000000" viewBox="0 0 73 73" fill="none" xmlns="http://www.w3.org/2000/svg" xmlns:xlink="http://www.w3.org/1999/xlink">
	<desc>
			Created with Pixso.
	</desc>
	<defs>
		<clipPath id="clip60_1799">
			<rect id="lab 1" rx="-0.500000" width="72.000000" height="72.000000" transform="translate(0.500000 0.500000)" fill="white" fill-opacity="0"/>
		</clipPath>
	</defs>
	<rect id="lab 1" rx="-0.500000" width="72.000000" height="72.000000" transform="translate(0.500000 0.500000)" fill="#FFFFFF" fill-opacity="0"/>
	<g clip-path="url(#clip60_1799)">
		<path id="Vector" d="M20.08 33.48L24.77 38.09C25.14 38.45 25.61 38.64 26.1 38.64C26.33 38.64 26.55 38.6 26.77 38.52C27.47 38.27 27.95 37.65 28.02 36.9L28.64 30.36C28.65 30.32 28.67 30.29 28.7 30.26C33.01 27.12 35.58 22.06 35.58 16.74C35.58 12.22 33.81 7.99 30.59 4.82C27.38 1.65 23.12 -0.07 18.6 0C14.24 0.06 10.12 1.8 7.01 4.91C3.9 8.02 2.16 12.14 2.1 16.5C2.03 21.02 3.75 25.28 6.92 28.49C10.09 31.71 14.32 33.48 18.84 33.48C19.22 33.48 19.6 33.46 19.97 33.44C20.02 33.44 20.05 33.45 20.08 33.48ZM18.84 31.34C14.9 31.34 11.21 29.79 8.44 26.99C5.67 24.18 4.18 20.47 4.24 16.53C4.29 12.73 5.81 9.14 8.53 6.42C11.24 3.71 14.83 2.19 18.63 2.14C22.57 2.08 26.29 3.57 29.09 6.34C31.89 9.1 33.44 12.8 33.44 16.74C33.44 21.38 31.2 25.79 27.44 28.53C26.92 28.92 26.58 29.51 26.52 30.16L25.93 36.23L21.58 31.96C21.16 31.53 20.58 31.3 19.98 31.3C19.93 31.3 19.88 31.3 19.83 31.3C19.5 31.33 19.17 31.34 18.84 31.34Z" fill="#000000" fill-opacity="1.000000" fill-rule="nonzero"/>
		<path id="Vector" d="M70.73 55.04L65.47 25.56C65.06 23.25 63.06 21.58 60.71 21.58L57.37 21.58C56.82 20.61 56.05 19.79 55.15 19.15L56.42 15.65C56.76 14.7 56.28 13.66 55.34 13.32L53.51 12.65L55.52 7.13C55.86 6.19 55.38 5.15 54.44 4.81L50.56 3.4C49.62 3.05 48.58 3.54 48.23 4.48L46.22 10L44.4 9.34C43.46 8.99 42.42 9.48 42.07 10.42L34.03 32.53C33.68 33.47 34.17 34.52 35.11 34.86L35.36 34.95L34.42 37.52C34.25 37.99 34.27 38.5 34.48 38.96C34.7 39.41 35.07 39.76 35.54 39.93L42.45 42.45C42.66 42.52 42.88 42.56 43.1 42.56C43.37 42.56 43.64 42.5 43.89 42.38C44.35 42.17 44.69 41.79 44.87 41.32L45.8 38.75L46.05 38.84C46.25 38.91 46.46 38.95 46.67 38.95C47.39 38.95 48.1 38.5 48.37 37.75L50.14 32.91C53.23 33.18 56.07 31.57 57.48 28.97C57.74 29.11 57.91 29.38 57.91 29.69L57.91 37.93C57.91 38.52 58.39 38.99 58.98 38.99C59.57 38.99 60.05 38.52 60.05 37.93L60.05 29.69C60.05 28.46 59.29 27.4 58.22 26.95C58.33 26.44 58.39 25.91 58.39 25.36C58.39 24.8 58.33 24.25 58.21 23.71L60.71 23.71C62.02 23.71 63.13 24.65 63.36 25.93L68.63 55.41C69.05 57.76 68.41 60.16 66.88 61.98C65.35 63.81 63.1 64.86 60.72 64.86C59.67 64.86 34.2 64.86 33.15 64.86L33.15 56.21C33.59 56.21 51.12 56.21 55.15 56.21C57.85 56.21 60.05 54.01 60.05 51.31L60.05 42.92C60.05 42.33 59.57 41.85 58.98 41.85C58.39 41.85 57.91 42.33 57.91 42.92L57.91 51.31C57.91 52.83 56.67 54.07 55.15 54.07L53.17 54.07L53.17 50.26C53.17 49.28 52.37 48.48 51.39 48.48L28.29 48.48C27.31 48.48 26.51 49.28 26.51 50.26L26.51 54.43C26.51 55.41 27.31 56.21 28.29 56.21L31.01 56.21L31.01 64.86L21.44 64.86C20.45 64.86 19.65 65.66 19.65 66.64L19.65 71.21C19.65 72.2 20.45 73 21.44 73L29.59 73C30.18 73 30.66 72.52 30.66 71.93C30.66 71.34 30.18 70.86 29.59 70.86L21.79 70.86L21.79 67C25.33 67 54.71 67 57.89 67L57.89 70.86L34.58 70.86C33.99 70.86 33.51 71.34 33.51 71.93C33.51 72.52 33.99 73 34.58 73L58.24 73C59.23 73 60.02 72.2 60.02 71.21L60.02 67L60.72 67C63.74 67 66.58 65.67 68.52 63.36C70.46 61.04 71.27 58.01 70.73 55.04ZM50.13 5.52L53.4 6.71L51.5 11.92L48.23 10.73L50.13 5.52ZM42.94 40.35L36.52 38.01L37.37 35.68L43.79 38.02L42.94 40.35ZM46.48 36.72C44.6 36.04 37.42 33.42 36.14 32.96L43.97 11.46C44.93 11.8 54.3 15.22 54.3 15.22L53.22 18.18C52.47 17.93 51.66 17.79 50.82 17.79C46.64 17.79 43.24 21.19 43.24 25.36C43.24 28.56 45.23 31.3 48.04 32.41L46.48 36.72ZM50.82 30.8C47.82 30.8 45.38 28.36 45.38 25.36C45.38 22.37 47.82 19.93 50.82 19.93C53.81 19.93 56.25 22.37 56.25 25.36C56.25 28.36 53.81 30.8 50.82 30.8ZM28.65 50.62L51.03 50.62L51.03 54.07C50.91 54.07 32.17 54.07 28.65 54.07L28.65 50.62Z" fill="#000000" fill-opacity="1.000000" fill-rule="nonzero"/>
		<path id="Vector" d="M50.82 22.13C49.03 22.13 47.58 23.58 47.58 25.36C47.58 27.15 49.03 28.6 50.82 28.6C52.6 28.6 54.05 27.15 54.05 25.36C54.05 23.58 52.6 22.13 50.82 22.13ZM50.82 26.46C50.21 26.46 49.72 25.97 49.72 25.36C49.72 24.76 50.21 24.26 50.82 24.26C51.42 24.26 51.92 24.76 51.92 25.36C51.92 25.97 51.42 26.46 50.82 26.46Z" fill="#000000" fill-opacity="1.000000" fill-rule="nonzero"/>
		<path id="Vector" d="M25.48 15.7C27.33 15.7 28.82 14.2 28.82 12.36C28.82 10.52 27.33 9.02 25.48 9.02C23.64 9.02 22.14 10.52 22.14 12.36C22.14 14.2 23.64 15.7 25.48 15.7ZM25.48 11.16C26.15 11.16 26.68 11.7 26.68 12.36C26.68 13.02 26.15 13.56 25.48 13.56C24.82 13.56 24.28 13.02 24.28 12.36C24.28 11.7 24.82 11.16 25.48 11.16Z" fill="#000000" fill-opacity="1.000000" fill-rule="nonzero"/>
		<path id="Vector" d="M11.17 13.25C9.33 13.25 7.84 14.75 7.84 16.59C7.84 18.43 9.33 19.93 11.17 19.93C13.02 19.93 14.51 18.43 14.51 16.59C14.51 14.75 13.02 13.25 11.17 13.25ZM11.17 17.79C10.51 17.79 9.97 17.25 9.97 16.59C9.97 15.92 10.51 15.39 11.17 15.39C11.84 15.39 12.38 15.92 12.38 16.59C12.38 17.25 11.84 17.79 11.17 17.79Z" fill="#000000" fill-opacity="1.000000" fill-rule="nonzero"/>
		<path id="Vector" d="M27.64 20.26L26.01 21.89C25.59 22.31 25.59 22.98 26.01 23.4C26.22 23.61 26.49 23.71 26.76 23.71C27.04 23.71 27.31 23.61 27.52 23.4L29.15 21.77C29.57 21.36 29.57 20.68 29.15 20.26C28.73 19.84 28.05 19.84 27.64 20.26Z" fill="#000000" fill-opacity="1.000000" fill-rule="nonzero"/>
		<path id="Vector" d="M17.02 7.25C16.6 6.84 15.93 6.84 15.51 7.25L13.88 8.88C13.46 9.3 13.46 9.98 13.88 10.39C14.09 10.6 14.36 10.71 14.64 10.71C14.91 10.71 15.18 10.6 15.39 10.39L17.02 8.77C17.44 8.35 17.44 7.67 17.02 7.25Z" fill="#000000" fill-opacity="1.000000" fill-rule="nonzero"/>
		<path id="Vector" d="M20.41 16.17L18.78 14.54C18.36 14.13 17.68 14.13 17.27 14.54C16.85 14.96 16.85 15.64 17.27 16.06L18.89 17.69C19.1 17.89 19.38 18 19.65 18C19.92 18 20.2 17.89 20.41 17.69C20.82 17.27 20.82 16.59 20.41 16.17Z" fill="#000000" fill-opacity="1.000000" fill-rule="nonzero"/>
		<path id="Vector" d="M17.43 23.07L15.81 24.7C15.39 25.12 15.39 25.8 15.81 26.21C16.01 26.42 16.29 26.53 16.56 26.53C16.84 26.53 17.11 26.42 17.32 26.21L18.95 24.59C19.36 24.17 19.36 23.49 18.95 23.07C18.53 22.66 17.85 22.66 17.43 23.07Z" fill="#000000" fill-opacity="1.000000" fill-rule="nonzero"/>
	</g>
</svg>
