<svg width="47.226562" height="62.000000" viewBox="0 0 47.2266 62" fill="none" xmlns="http://www.w3.org/2000/svg" xmlns:xlink="http://www.w3.org/1999/xlink">
	<desc>
			Created with Pixso.
	</desc>
	<defs/>
	<path id="Vector" d="M46.69 15.06L32.16 0.53C31.82 0.19 31.36 0 30.87 0L5.44 0C2.44 0 0 2.44 0 5.44L0 56.55C0 59.55 2.44 62 5.44 62L41.77 62C44.78 62 47.22 59.55 47.22 56.55L47.22 16.34C47.22 15.85 47.01 15.38 46.69 15.06ZM32.69 6.2L41.02 14.53L34.51 14.53C33.51 14.53 32.69 13.71 32.69 12.71L32.69 6.2ZM41.77 58.36L5.44 58.36C4.44 58.36 3.63 57.55 3.63 56.55L3.63 5.44C3.63 4.44 4.44 3.63 5.44 3.63L29.06 3.63L29.06 12.71C29.06 15.71 31.5 18.16 34.51 18.16L43.59 18.16L43.59 56.55C43.59 57.55 42.77 58.36 41.77 58.36Z" fill="#000000" fill-opacity="1.000000" fill-rule="nonzero"/>
	<path id="Vector" d="M34.51 25.67L12.71 25.67C11.71 25.67 10.89 26.48 10.89 27.48C10.89 28.49 11.71 29.3 12.71 29.3L34.51 29.3C35.51 29.3 36.32 28.49 36.32 27.48C36.32 26.48 35.51 25.67 34.51 25.67Z" fill="#DDD0A4" fill-opacity="1.000000" fill-rule="nonzero"/>
	<path id="Vector" d="M34.51 32.93L12.71 32.93C11.71 32.93 10.89 33.75 10.89 34.75C10.89 35.75 11.71 36.57 12.71 36.57L34.51 36.57C35.51 36.57 36.32 35.75 36.32 34.75C36.32 33.75 35.51 32.93 34.51 32.93Z" fill="#DDD0A4" fill-opacity="1.000000" fill-rule="nonzero"/>
	<path id="Vector" d="M34.51 40.2L12.71 40.2C11.71 40.2 10.89 41.01 10.89 42.01C10.89 43.02 11.71 43.83 12.71 43.83L34.51 43.83C35.51 43.83 36.32 43.02 36.32 42.01C36.32 41.01 35.51 40.2 34.51 40.2Z" fill="#DDD0A4" fill-opacity="1.000000" fill-rule="nonzero"/>
	<path id="Vector" d="M27.24 47.46L12.71 47.46C11.71 47.46 10.89 48.28 10.89 49.28C10.89 50.28 11.71 51.1 12.71 51.1L27.24 51.1C28.24 51.1 29.06 50.28 29.06 49.28C29.06 48.28 28.24 47.46 27.24 47.46Z" fill="#DDD0A4" fill-opacity="1.000000" fill-rule="nonzero"/>
</svg>
