<svg width="58.000000" height="58.000000" viewBox="0 0 58 58" fill="none" xmlns="http://www.w3.org/2000/svg" xmlns:xlink="http://www.w3.org/1999/xlink">
	<desc>
			Created with Pixso.
	</desc>
	<defs>
		<clipPath id="clip60_2239">
			<rect id="phone-call-2 1" rx="-0.500000" width="57.000000" height="57.000000" transform="translate(0.500000 0.500000)" fill="white" fill-opacity="0"/>
		</clipPath>
	</defs>
	<rect id="phone-call-2 1" rx="-0.500000" width="57.000000" height="57.000000" transform="translate(0.500000 0.500000)" fill="#FFFFFF" fill-opacity="0"/>
	<g clip-path="url(#clip60_2239)">
		<path id="Vector" d="M45.83 35.92C44.65 34.69 43.21 34.03 41.7 34.03C40.19 34.03 38.75 34.68 37.51 35.91L33.64 39.77C33.32 39.6 33 39.44 32.7 39.28C32.26 39.06 31.84 38.85 31.49 38.63C27.86 36.33 24.57 33.33 21.41 29.45C19.88 27.51 18.85 25.89 18.11 24.23C19.11 23.32 20.04 22.36 20.95 21.44C21.29 21.1 21.63 20.74 21.98 20.4C24.55 17.83 24.55 14.5 21.98 11.93L18.63 8.59C18.25 8.21 17.86 7.82 17.49 7.43C16.76 6.67 15.99 5.88 15.19 5.15C14.01 3.97 12.59 3.35 11.09 3.35C9.6 3.35 8.15 3.97 6.93 5.15C6.92 5.16 6.92 5.16 6.91 5.17L2.74 9.37C1.18 10.94 0.28 12.85 0.09 15.06C-0.21 18.64 0.85 21.97 1.65 24.15C3.64 29.5 6.6 34.46 11.02 39.77C16.38 46.17 22.83 51.23 30.2 54.79C33.02 56.12 36.77 57.7 40.97 57.97C41.23 57.98 41.5 58 41.74 58C44.57 58 46.95 56.98 48.81 54.96C48.82 54.93 48.84 54.92 48.86 54.9C49.49 54.13 50.23 53.43 51 52.68C51.53 52.18 52.06 51.65 52.59 51.1C53.8 49.84 54.44 48.37 54.44 46.87C54.44 45.35 53.79 43.89 52.55 42.67L45.83 35.92ZM50.22 48.81C49.74 49.33 49.25 49.79 48.72 50.31C47.93 51.07 47.12 51.86 46.36 52.76C45.12 54.08 43.67 54.7 41.76 54.7C41.57 54.7 41.38 54.7 41.19 54.69C37.56 54.46 34.18 53.04 31.65 51.83C24.72 48.47 18.63 43.71 13.58 37.67C9.4 32.64 6.61 27.99 4.76 23C3.63 19.95 3.21 17.57 3.39 15.33C3.52 13.9 4.07 12.71 5.08 11.7L9.26 7.52C9.86 6.96 10.49 6.66 11.12 6.66C11.89 6.66 12.51 7.12 12.9 7.51C12.92 7.52 12.93 7.54 12.94 7.55C13.69 8.25 14.4 8.97 15.14 9.74C15.52 10.13 15.92 10.52 16.31 10.93L19.65 14.27C20.95 15.57 20.95 16.77 19.65 18.06C19.29 18.42 18.95 18.77 18.6 19.12C17.57 20.17 16.59 21.15 15.52 22.1C15.5 22.13 15.47 22.14 15.46 22.16C14.41 23.22 14.61 24.25 14.83 24.94C14.84 24.98 14.85 25.02 14.86 25.05C15.73 27.16 16.96 29.14 18.82 31.51L18.83 31.52C22.21 35.68 25.77 38.92 29.7 41.41C30.2 41.73 30.72 41.98 31.21 42.23C31.65 42.45 32.06 42.66 32.42 42.88C32.47 42.9 32.51 42.94 32.56 42.96C32.98 43.17 33.37 43.27 33.78 43.27C34.79 43.27 35.43 42.63 35.64 42.42L39.82 38.24C40.24 37.82 40.9 37.32 41.67 37.32C42.43 37.32 43.05 37.8 43.43 38.21C43.45 38.23 43.45 38.23 43.46 38.24L50.2 44.98C51.46 46.23 51.46 47.52 50.22 48.81Z" fill="#000000" fill-opacity="1.000000" fill-rule="nonzero"/>
		<path id="Vector" d="M31.34 13.79C34.55 14.33 37.46 15.85 39.79 18.17C42.11 20.5 43.62 23.41 44.17 26.62C44.3 27.43 45 27.99 45.8 27.99C45.89 27.99 45.98 27.98 46.08 27.97C46.98 27.82 47.58 26.96 47.44 26.06C46.78 22.18 44.94 18.64 42.14 15.84C39.33 13.03 35.8 11.2 31.92 10.54C31.01 10.39 30.16 10.99 30.01 11.88C29.85 12.78 30.43 13.64 31.34 13.79Z" fill="#DDD0A4" fill-opacity="1.000000" fill-rule="nonzero"/>
		<path id="Vector" d="M57.93 25.58C56.84 19.19 53.83 13.38 49.2 8.75C44.57 4.12 38.76 1.11 32.37 0.02C31.47 -0.14 30.63 0.47 30.47 1.37C30.32 2.27 30.92 3.12 31.83 3.28C37.53 4.24 42.74 6.95 46.87 11.07C51.01 15.21 53.7 20.41 54.67 26.12C54.81 26.93 55.5 27.49 56.3 27.49C56.4 27.49 56.48 27.48 56.58 27.47C57.47 27.33 58.09 26.47 57.93 25.58Z" fill="#DDD0A4" fill-opacity="1.000000" fill-rule="nonzero"/>
	</g>
</svg>
