<svg width="76.000000" height="74.000000" viewBox="0 0 76 74" fill="none" xmlns="http://www.w3.org/2000/svg" xmlns:xlink="http://www.w3.org/1999/xlink">
	<desc>
			Created with Pixso.
	</desc>
	<defs>
		<clipPath id="clip60_1794">
			<rect id="insurance 1" rx="-0.500000" width="75.000000" height="73.000000" transform="translate(0.500000 0.500000)" fill="white" fill-opacity="0"/>
		</clipPath>
	</defs>
	<rect id="insurance 1" rx="-0.500000" width="75.000000" height="73.000000" transform="translate(0.500000 0.500000)" fill="#FFFFFF" fill-opacity="0"/>
	<g clip-path="url(#clip60_1794)">
		<path id="Vector" d="M41.56 64.75L41.56 70.53C41.56 70.83 41.68 71.13 41.91 71.34C42.13 71.56 42.43 71.68 42.75 71.68L68.87 71.68C69.18 71.68 69.49 71.56 69.71 71.34C69.93 71.13 70.06 70.83 70.06 70.53L70.06 64.75C70.06 64.44 69.93 64.14 69.71 63.93C69.49 63.71 69.18 63.59 68.87 63.59L68.87 49.71C68.87 49.58 68.84 49.44 68.79 49.31L66.39 43.06C65.96 41.96 65.2 41.01 64.21 40.34C63.21 39.67 62.04 39.31 60.83 39.31L49.87 39.31L49.87 31.59C51.73 32.45 53.84 32.6 55.81 32.03C57.05 32.39 58.36 32.47 59.64 32.25C60.91 32.03 62.12 31.52 63.15 30.77C64.19 30.01 65.03 29.03 65.62 27.91C66.2 26.78 66.5 25.54 66.5 24.28C66.5 23.01 66.2 21.77 65.62 20.65C65.03 19.52 64.19 18.54 63.15 17.79C62.11 17.03 60.91 16.53 59.63 16.31C58.36 16.09 57.05 16.16 55.81 16.52C53.84 15.95 51.73 16.11 49.87 16.96L49.87 5.78C49.87 4.86 49.49 3.97 48.83 3.32C48.16 2.67 47.25 2.31 46.31 2.31L22.56 2.31C21.61 2.31 20.71 2.67 20.04 3.32C19.37 3.97 19 4.86 19 5.78L19 31.21L18.98 31.21C18.04 31.21 17.13 31.5 16.37 32.05C15.62 32.59 15.06 33.35 14.79 34.23L10.74 47.06C10.72 47.12 10.7 47.19 10.69 47.25L8.46 63.59L8.31 63.59C7.99 63.59 7.69 63.71 7.47 63.93C7.25 64.14 7.12 64.44 7.12 64.75L7.12 70.53C7.12 70.83 7.25 71.13 7.47 71.34C7.69 71.56 7.99 71.68 8.31 71.68L34.43 71.68C34.75 71.68 35.05 71.56 35.27 71.34C35.49 71.13 35.62 70.83 35.62 70.53L35.62 64.75C35.62 64.5 35.54 64.26 35.39 64.07C35.25 63.87 35.04 63.72 34.8 63.65L36.52 57.81L38.49 57.81L42.03 63.83C41.88 63.93 41.76 64.07 41.68 64.23C41.6 64.39 41.56 64.57 41.56 64.75ZM67.68 69.37L43.93 69.37L43.93 65.9L67.68 65.9L67.68 69.37ZM58.18 18.5C59.36 18.5 60.5 18.83 61.48 19.47C62.46 20.1 63.22 21.01 63.67 22.06C64.12 23.12 64.24 24.28 64.01 25.4C63.78 26.53 63.21 27.56 62.38 28.36C61.55 29.17 60.49 29.72 59.34 29.95C58.19 30.17 57 30.06 55.91 29.62C54.83 29.18 53.9 28.44 53.25 27.49C52.59 26.54 52.25 25.42 52.25 24.28C52.25 22.74 52.87 21.27 53.99 20.19C55.1 19.11 56.61 18.5 58.18 18.5ZM52.25 18.61C50.73 20.12 49.87 22.16 49.87 24.28C49.87 26.4 50.73 28.43 52.25 29.94C50.91 29.68 49.7 28.97 48.84 27.94C47.97 26.9 47.49 25.61 47.49 24.28C47.49 22.94 47.97 21.65 48.84 20.62C49.7 19.58 50.91 18.87 52.25 18.61ZM33.25 69.37L9.5 69.37L9.5 65.9L33.25 65.9L33.25 69.37ZM32.35 63.59L10.85 63.59L13.03 47.65L17.06 34.91C17.21 34.44 17.53 34.05 17.96 33.8C18.39 33.55 18.89 33.47 19.38 33.57C19.87 33.66 20.31 33.93 20.6 34.33C20.9 34.72 21.03 35.2 20.98 35.69L19.01 49.55C18.98 49.76 19 49.97 19.09 50.15C19.17 50.34 19.3 50.51 19.46 50.63C19.52 50.68 24.93 54.74 24.93 58.96C24.93 59.27 25.06 59.56 25.28 59.78C25.5 60 25.81 60.12 26.12 60.12C26.43 60.12 26.74 60 26.96 59.78C27.18 59.56 27.31 59.27 27.31 58.96C27.31 58.58 27.27 58.19 27.21 57.81L34.05 57.81L32.35 63.59ZM38.11 55.5L26.51 55.5C25.19 52.53 22.59 50.17 21.45 49.23L23.34 35.99C23.34 35.98 23.34 35.97 23.34 35.96C23.43 35.17 23.3 34.37 22.95 33.66C22.6 32.94 22.05 32.33 21.37 31.9L21.37 5.78C21.37 5.47 21.5 5.18 21.72 4.96C21.94 4.74 22.24 4.62 22.56 4.62L27.76 4.62L28.62 6.29C28.72 6.49 28.87 6.65 29.06 6.76C29.25 6.87 29.46 6.93 29.68 6.93L39.18 6.93C39.4 6.93 39.62 6.87 39.81 6.76C39.99 6.65 40.15 6.49 40.24 6.29L41.1 4.62L46.31 4.62C46.62 4.62 46.92 4.74 47.15 4.96C47.37 5.18 47.49 5.47 47.5 5.78L47.5 18.62C45.97 20.13 45.12 22.16 45.12 24.28C45.12 26.39 45.97 28.42 47.5 29.93L47.5 39.31L46.06 39.31L40.07 26.99C39.7 26.24 39.1 25.61 38.35 25.2C37.61 24.78 36.74 24.61 35.89 24.69C37.65 23.36 41.56 19.75 41.56 13.87C41.56 13.67 41.5 13.47 41.4 13.3C41.3 13.13 41.16 12.98 40.98 12.88L35.04 9.41C34.86 9.3 34.65 9.25 34.43 9.25C34.22 9.25 34.01 9.3 33.82 9.41L27.88 12.88C27.71 12.98 27.56 13.13 27.46 13.3C27.36 13.47 27.31 13.67 27.31 13.86C27.31 14.17 27.34 21.51 33.82 25.27C33.87 25.3 33.92 25.32 33.98 25.34C33.21 25.84 32.63 26.58 32.33 27.43C32.03 28.28 32.04 29.21 32.34 30.06L27.31 30.06C26.99 30.06 26.69 30.18 26.47 30.4C26.25 30.61 26.12 30.91 26.12 31.21L26.12 40.46C26.12 40.77 26.25 41.06 26.47 41.28C26.69 41.5 26.99 41.62 27.31 41.62L37.52 41.62L38.55 43.93L27.31 43.93C26.99 43.93 26.69 44.05 26.47 44.27C26.25 44.49 26.12 44.78 26.12 45.09L26.12 49.71C26.12 50.02 26.25 50.31 26.47 50.53C26.69 50.75 26.99 50.87 27.31 50.87L38.58 50.87L38.11 55.5ZM34.41 22.88C30.65 20.32 29.88 16.09 29.72 14.5L34.43 11.75L39.16 14.51C38.89 19.08 35.75 21.88 34.41 22.88ZM36.48 39.31L28.5 39.31L28.5 32.37L33.36 32.37L36.48 39.31ZM38.82 48.56L28.5 48.56L28.5 46.25L39.06 46.25L38.82 48.56ZM40.4 56.4L41.55 45.2C41.57 45.01 41.54 44.81 41.46 44.63L34.64 29.44C34.45 29.02 34.43 28.54 34.6 28.11C34.77 27.68 35.11 27.33 35.54 27.14C35.97 26.95 36.47 26.93 36.91 27.09C37.36 27.24 37.72 27.57 37.92 27.98L47.61 47.9C47.74 48.17 47.99 48.39 48.28 48.49C48.58 48.59 48.91 48.58 49.19 48.45C49.48 48.31 49.7 48.08 49.8 47.79C49.91 47.5 49.89 47.18 49.76 46.91L47.18 41.62L50.32 41.62L53.56 47.92C53.63 48.06 53.72 48.18 53.84 48.28C53.96 48.38 54.1 48.46 54.24 48.5C54.39 48.55 54.55 48.57 54.71 48.56C54.86 48.55 55.01 48.51 55.15 48.44C55.29 48.38 55.42 48.28 55.52 48.17C55.62 48.05 55.7 47.92 55.75 47.77C55.8 47.63 55.82 47.47 55.81 47.32C55.8 47.17 55.75 47.02 55.68 46.88L52.98 41.62L56.26 41.62L59.5 47.92C59.56 48.06 59.66 48.18 59.78 48.28C59.9 48.38 60.03 48.46 60.18 48.5C60.33 48.55 60.49 48.57 60.64 48.56C60.8 48.55 60.95 48.51 61.09 48.44C61.23 48.38 61.36 48.28 61.46 48.17C61.56 48.05 61.64 47.92 61.69 47.77C61.74 47.63 61.76 47.47 61.75 47.32C61.73 47.17 61.69 47.02 61.62 46.88L58.92 41.62L60.83 41.62C61.55 41.62 62.26 41.84 62.86 42.24C63.45 42.64 63.91 43.21 64.16 43.87L66.5 49.92L66.5 63.59L44.62 63.59L40.4 56.4Z" fill="#000000" fill-opacity="1.000000" fill-rule="nonzero"/>
		<path id="Vector" d="M55.81 26.59C55.81 26.9 55.93 27.19 56.16 27.41C56.38 27.62 56.68 27.75 57 27.75L58.18 27.75C58.81 27.75 59.42 27.5 59.86 27.07C60.31 26.63 60.56 26.05 60.56 25.43C60.56 24.82 60.31 24.23 59.86 23.8C59.42 23.36 58.81 23.12 58.18 23.12L59.37 23.12C59.68 23.12 59.99 23 60.21 22.78C60.43 22.56 60.56 22.27 60.56 21.96C60.56 21.66 60.43 21.36 60.21 21.15C59.99 20.93 59.68 20.81 59.37 20.81L58.18 20.81C57.55 20.81 56.95 21.05 56.5 21.48C56.06 21.92 55.81 22.51 55.81 23.12C55.81 23.73 56.06 24.32 56.5 24.76C56.95 25.19 57.55 25.43 58.18 25.43L57 25.43C56.68 25.43 56.38 25.55 56.16 25.77C55.93 25.99 55.81 26.28 55.81 26.59Z" fill="#000000" fill-opacity="1.000000" fill-rule="nonzero"/>
	</g>
</svg>
