<svg width="20.000000" height="17.446289" viewBox="0 0 20 17.4463" fill="none" xmlns="http://www.w3.org/2000/svg" xmlns:xlink="http://www.w3.org/1999/xlink">
	<desc>
			Created with Pixso.
	</desc>
	<defs/>
	<path id="Vector" d="M0.35 8.37L4.94 10.08L6.74 15.85C6.81 16.24 7.28 16.32 7.59 16.08L10.17 13.98C10.4 13.75 10.79 13.75 11.1 13.98L15.7 17.33C16.01 17.57 16.48 17.41 16.56 17.02L19.99 0.65C20.06 0.26 19.67 -0.13 19.28 0.03L0.35 7.36C-0.12 7.51 -0.12 8.21 0.35 8.37ZM6.5 9.23L15.54 3.69C15.7 3.62 15.85 3.85 15.7 3.93L8.3 10.86C8.06 11.1 7.83 11.41 7.83 11.8L7.59 13.67C7.59 13.9 7.2 13.98 7.13 13.67L6.19 10.24C5.96 9.85 6.11 9.38 6.5 9.23Z" fill="#A89060" fill-opacity="1.000000" fill-rule="nonzero"/>
</svg>
