<svg width="20.866699" height="12.121582" viewBox="0 0 20.8667 12.1216" fill="none" xmlns="http://www.w3.org/2000/svg" xmlns:xlink="http://www.w3.org/1999/xlink">
	<desc>
			Created with Pixso.
	</desc>
	<defs/>
	<path id="Vector" d="M20.67 10.87C20.67 10.79 20.58 10.79 20.58 10.71C20.25 10.04 19.51 9.21 18.51 8.3C18.01 7.88 17.76 7.55 17.6 7.38C17.35 7.05 17.35 6.8 17.43 6.47C17.51 6.22 17.84 5.81 18.43 5.06C18.76 4.64 18.92 4.4 19.17 4.15C20.42 2.49 21 1.41 20.83 0.91L20.75 0.83C20.67 0.74 20.58 0.66 20.42 0.66C20.25 0.58 20 0.58 19.75 0.66L16.6 0.66C16.52 0.66 16.52 0.66 16.35 0.66C16.27 0.66 16.18 0.66 16.18 0.66L16.1 0.66L16.02 0.66L15.94 0.74C15.85 0.83 15.85 0.83 15.85 0.91C15.52 1.82 15.11 2.57 14.69 3.4C14.44 3.81 14.19 4.23 13.94 4.56C13.69 4.89 13.53 5.14 13.36 5.31C13.2 5.47 13.03 5.56 12.95 5.72C12.86 5.81 12.7 5.89 12.7 5.81C12.61 5.81 12.53 5.81 12.53 5.72C12.45 5.64 12.37 5.56 12.28 5.47C12.2 5.39 12.2 5.23 12.12 5.06C12.12 4.89 12.12 4.73 12.12 4.64C12.12 4.56 12.12 4.31 12.12 4.15C12.12 3.9 12.12 3.73 12.12 3.65C12.12 3.4 12.12 3.07 12.12 2.73C12.12 2.4 12.12 2.15 12.12 1.99C12.12 1.82 12.12 1.57 12.12 1.41C12.12 1.16 12.12 0.99 12.12 0.91C12.12 0.83 12.03 0.66 12.03 0.58C11.95 0.49 11.87 0.41 11.78 0.33C11.7 0.24 11.54 0.24 11.45 0.16C11.04 0.08 10.54 0 9.96 0C8.63 0 7.72 0.08 7.38 0.24C7.22 0.33 7.05 0.41 6.97 0.58C6.8 0.74 6.8 0.83 6.89 0.83C7.3 0.91 7.63 1.07 7.8 1.32L7.88 1.49C7.97 1.57 7.97 1.74 8.05 1.99C8.13 2.24 8.13 2.49 8.13 2.82C8.13 3.32 8.13 3.81 8.13 4.15C8.13 4.56 8.05 4.81 8.05 5.06C8.05 5.31 7.97 5.47 7.88 5.56C7.8 5.72 7.8 5.81 7.72 5.81C7.72 5.81 7.72 5.89 7.63 5.89C7.55 5.89 7.47 5.97 7.3 5.97C7.22 5.97 7.05 5.89 6.97 5.81C6.8 5.72 6.64 5.56 6.55 5.39C6.39 5.23 6.22 4.98 6.06 4.64C5.89 4.31 5.64 3.98 5.47 3.48L5.31 3.15C5.23 2.98 5.06 2.65 4.89 2.24C4.73 1.82 4.56 1.49 4.4 1.07C4.31 0.91 4.23 0.83 4.15 0.74L4.06 0.74C4.06 0.74 3.98 0.66 3.9 0.66C3.81 0.66 3.73 0.58 3.65 0.58L0.66 0.58C0.33 0.58 0.16 0.66 0.08 0.74L0 0.83C0 0.83 0 0.91 0 0.99C0 1.07 0 1.16 0.08 1.32C0.49 2.32 0.99 3.32 1.49 4.31C1.99 5.23 2.49 6.06 2.82 6.64C3.23 7.22 3.57 7.8 3.98 8.3C4.4 8.8 4.64 9.13 4.73 9.29C4.89 9.46 4.98 9.54 5.06 9.63L5.31 9.87C5.47 10.04 5.72 10.29 6.06 10.54C6.39 10.79 6.8 11.04 7.22 11.29C7.63 11.54 8.13 11.7 8.63 11.87C9.21 12.03 9.71 12.12 10.21 12.03L11.45 12.03C11.7 12.03 11.87 11.95 12.03 11.78L12.12 11.7C12.12 11.62 12.2 11.62 12.2 11.54C12.2 11.45 12.2 11.37 12.2 11.2C12.2 10.87 12.2 10.62 12.28 10.37C12.37 10.12 12.37 9.96 12.45 9.79C12.53 9.63 12.61 9.54 12.7 9.46C12.78 9.38 12.86 9.29 12.86 9.29L12.95 9.29C13.11 9.21 13.36 9.29 13.53 9.46C13.78 9.63 14.03 9.87 14.19 10.12C14.36 10.37 14.61 10.62 14.94 10.95C15.27 11.29 15.52 11.54 15.69 11.62L15.94 11.78C16.1 11.87 16.27 11.95 16.52 12.03C16.77 12.12 16.93 12.12 17.1 12.12L19.92 12.03C20.17 12.03 20.42 11.95 20.58 11.87C20.75 11.78 20.83 11.7 20.83 11.54C20.83 11.45 20.83 11.29 20.83 11.2C20.67 11.04 20.67 10.95 20.67 10.87Z" fill="#A89060" fill-opacity="1.000000" fill-rule="nonzero"/>
</svg>
