<svg width="55.000000" height="55.000000" viewBox="0 0 55 55" fill="none" xmlns="http://www.w3.org/2000/svg" xmlns:xlink="http://www.w3.org/1999/xlink">
	<desc>
			Created with Pixso.
	</desc>
	<defs>
		<clipPath id="clip60_2234">
			<rect id="comment 1" rx="-0.500000" width="54.000000" height="54.000000" transform="translate(0.500000 0.500000)" fill="white" fill-opacity="0"/>
		</clipPath>
	</defs>
	<rect id="comment 1" rx="-0.500000" width="54.000000" height="54.000000" transform="translate(0.500000 0.500000)" fill="#FFFFFF" fill-opacity="0"/>
	<g clip-path="url(#clip60_2234)">
		<path id="Vector" d="M27.5 55C42.66 55 55 42.66 55 27.5C55 24.88 54.63 22.3 53.91 19.83C53.55 18.61 52.28 17.92 51.06 18.27C49.85 18.63 49.15 19.9 49.51 21.12C50.11 23.17 50.41 25.31 50.41 27.5C50.41 40.13 40.13 50.41 27.5 50.41C14.86 50.41 4.58 40.13 4.58 27.5C4.58 14.86 14.86 4.58 27.5 4.58C32.09 4.58 36.51 5.92 40.27 8.46C41.32 9.17 42.75 8.89 43.45 7.84C44.16 6.79 43.88 5.37 42.83 4.66C38.31 1.61 33 0 27.5 0C12.33 0 0 12.33 0 27.5C0 42.66 12.33 55 27.5 55Z" fill="#000000" fill-opacity="1.000000" fill-rule="nonzero"/>
		<path id="Vector" d="M51.08 5.25L27.5 28.84L19.95 21.29C19.05 20.4 17.6 20.4 16.71 21.29C15.81 22.19 15.81 23.64 16.71 24.53L25.87 33.7C26.32 34.15 26.91 34.37 27.5 34.37C28.08 34.37 28.67 34.15 29.12 33.7L54.32 8.49C55.22 7.6 55.22 6.15 54.32 5.25C53.43 4.36 51.98 4.36 51.08 5.25Z" fill="#DDD0A4" fill-opacity="1.000000" fill-rule="nonzero"/>
	</g>
</svg>
